<mxfile host="app.diagrams.net" agent="Mozilla/5.0 (Windows NT 10.0; Win64; x64) AppleWebKit/537.36 (KHTML, like Gecko) Chrome/140.0.0.0 Safari/537.36" version="28.2.0">
  <diagram name="Page-1" id="XTuddCJgYcuufle1dmNs">
    <mxGraphModel dx="2150" dy="596" grid="1" gridSize="10" guides="1" tooltips="1" connect="1" arrows="1" fold="1" page="1" pageScale="1" pageWidth="850" pageHeight="1100" math="0" shadow="0">
      <root>
        <mxCell id="0" />
        <mxCell id="1" parent="0" />
        <mxCell id="OdOt8cRQKXHRtBc2M5Zz-19" style="edgeStyle=orthogonalEdgeStyle;rounded=0;orthogonalLoop=1;jettySize=auto;html=1;entryX=0.5;entryY=1;entryDx=0;entryDy=0;" edge="1" parent="1" source="OdOt8cRQKXHRtBc2M5Zz-12">
          <mxGeometry relative="1" as="geometry">
            <mxPoint x="620" y="210" as="targetPoint" />
          </mxGeometry>
        </mxCell>
        <mxCell id="OdOt8cRQKXHRtBc2M5Zz-20" style="edgeStyle=orthogonalEdgeStyle;rounded=0;orthogonalLoop=1;jettySize=auto;html=1;" edge="1" parent="1" source="OdOt8cRQKXHRtBc2M5Zz-12" target="OdOt8cRQKXHRtBc2M5Zz-15">
          <mxGeometry relative="1" as="geometry" />
        </mxCell>
        <mxCell id="OdOt8cRQKXHRtBc2M5Zz-21" style="edgeStyle=orthogonalEdgeStyle;rounded=0;orthogonalLoop=1;jettySize=auto;html=1;entryX=0.5;entryY=1;entryDx=0;entryDy=0;" edge="1" parent="1" source="OdOt8cRQKXHRtBc2M5Zz-12" target="OdOt8cRQKXHRtBc2M5Zz-14">
          <mxGeometry relative="1" as="geometry" />
        </mxCell>
        <mxCell id="OdOt8cRQKXHRtBc2M5Zz-22" style="edgeStyle=orthogonalEdgeStyle;rounded=0;orthogonalLoop=1;jettySize=auto;html=1;entryX=0.5;entryY=1;entryDx=0;entryDy=0;" edge="1" parent="1" source="OdOt8cRQKXHRtBc2M5Zz-12" target="OdOt8cRQKXHRtBc2M5Zz-13">
          <mxGeometry relative="1" as="geometry" />
        </mxCell>
        <mxCell id="OdOt8cRQKXHRtBc2M5Zz-23" style="edgeStyle=orthogonalEdgeStyle;rounded=0;orthogonalLoop=1;jettySize=auto;html=1;entryX=0.5;entryY=1;entryDx=0;entryDy=0;" edge="1" parent="1" source="OdOt8cRQKXHRtBc2M5Zz-12" target="OdOt8cRQKXHRtBc2M5Zz-18">
          <mxGeometry relative="1" as="geometry" />
        </mxCell>
        <mxCell id="OdOt8cRQKXHRtBc2M5Zz-12" value="Airline" style="rounded=0;whiteSpace=wrap;html=1;" vertex="1" parent="1">
          <mxGeometry x="360" y="310" width="120" height="60" as="geometry" />
        </mxCell>
        <mxCell id="OdOt8cRQKXHRtBc2M5Zz-13" value="name" style="ellipse;whiteSpace=wrap;html=1;" vertex="1" parent="1">
          <mxGeometry x="200" y="130" width="120" height="80" as="geometry" />
        </mxCell>
        <mxCell id="OdOt8cRQKXHRtBc2M5Zz-14" value="address" style="ellipse;whiteSpace=wrap;html=1;" vertex="1" parent="1">
          <mxGeometry x="320" y="130" width="120" height="80" as="geometry" />
        </mxCell>
        <mxCell id="OdOt8cRQKXHRtBc2M5Zz-15" value="contact_person" style="ellipse;whiteSpace=wrap;html=1;" vertex="1" parent="1">
          <mxGeometry x="440" y="130" width="120" height="80" as="geometry" />
        </mxCell>
        <mxCell id="OdOt8cRQKXHRtBc2M5Zz-18" value="&lt;u&gt;ID&lt;/u&gt;" style="ellipse;whiteSpace=wrap;html=1;" vertex="1" parent="1">
          <mxGeometry x="80" y="130" width="120" height="80" as="geometry" />
        </mxCell>
        <mxCell id="OdOt8cRQKXHRtBc2M5Zz-36" style="edgeStyle=orthogonalEdgeStyle;rounded=0;orthogonalLoop=1;jettySize=auto;html=1;" edge="1" parent="1" source="OdOt8cRQKXHRtBc2M5Zz-24">
          <mxGeometry relative="1" as="geometry">
            <mxPoint x="850" y="190" as="targetPoint" />
          </mxGeometry>
        </mxCell>
        <mxCell id="OdOt8cRQKXHRtBc2M5Zz-39" style="edgeStyle=orthogonalEdgeStyle;rounded=0;orthogonalLoop=1;jettySize=auto;html=1;entryX=0.5;entryY=1;entryDx=0;entryDy=0;" edge="1" parent="1" source="OdOt8cRQKXHRtBc2M5Zz-24" target="OdOt8cRQKXHRtBc2M5Zz-27">
          <mxGeometry relative="1" as="geometry" />
        </mxCell>
        <mxCell id="OdOt8cRQKXHRtBc2M5Zz-40" style="edgeStyle=orthogonalEdgeStyle;rounded=0;orthogonalLoop=1;jettySize=auto;html=1;entryX=0;entryY=0.5;entryDx=0;entryDy=0;" edge="1" parent="1" source="OdOt8cRQKXHRtBc2M5Zz-24" target="OdOt8cRQKXHRtBc2M5Zz-28">
          <mxGeometry relative="1" as="geometry" />
        </mxCell>
        <mxCell id="OdOt8cRQKXHRtBc2M5Zz-51" style="edgeStyle=orthogonalEdgeStyle;rounded=0;orthogonalLoop=1;jettySize=auto;html=1;entryX=0.5;entryY=0;entryDx=0;entryDy=0;" edge="1" parent="1" source="OdOt8cRQKXHRtBc2M5Zz-24" target="OdOt8cRQKXHRtBc2M5Zz-50">
          <mxGeometry relative="1" as="geometry" />
        </mxCell>
        <mxCell id="OdOt8cRQKXHRtBc2M5Zz-24" value="Employee" style="rounded=1;whiteSpace=wrap;html=1;" vertex="1" parent="1">
          <mxGeometry x="900" y="250" width="120" height="60" as="geometry" />
        </mxCell>
        <mxCell id="OdOt8cRQKXHRtBc2M5Zz-25" value="&lt;u&gt;ID&lt;/u&gt;" style="ellipse;whiteSpace=wrap;html=1;" vertex="1" parent="1">
          <mxGeometry x="800" y="130" width="100" height="60" as="geometry" />
        </mxCell>
        <mxCell id="OdOt8cRQKXHRtBc2M5Zz-26" value="Name" style="ellipse;whiteSpace=wrap;html=1;" vertex="1" parent="1">
          <mxGeometry x="920" y="120" width="100" height="60" as="geometry" />
        </mxCell>
        <mxCell id="OdOt8cRQKXHRtBc2M5Zz-27" value="Address" style="ellipse;whiteSpace=wrap;html=1;" vertex="1" parent="1">
          <mxGeometry x="1020" y="120" width="100" height="60" as="geometry" />
        </mxCell>
        <mxCell id="OdOt8cRQKXHRtBc2M5Zz-53" style="edgeStyle=orthogonalEdgeStyle;rounded=0;orthogonalLoop=1;jettySize=auto;html=1;entryX=0;entryY=0.5;entryDx=0;entryDy=0;" edge="1" parent="1" source="OdOt8cRQKXHRtBc2M5Zz-28" target="OdOt8cRQKXHRtBc2M5Zz-45">
          <mxGeometry relative="1" as="geometry" />
        </mxCell>
        <mxCell id="OdOt8cRQKXHRtBc2M5Zz-56" style="edgeStyle=orthogonalEdgeStyle;rounded=0;orthogonalLoop=1;jettySize=auto;html=1;entryX=0;entryY=0.5;entryDx=0;entryDy=0;" edge="1" parent="1" source="OdOt8cRQKXHRtBc2M5Zz-28" target="OdOt8cRQKXHRtBc2M5Zz-47">
          <mxGeometry relative="1" as="geometry" />
        </mxCell>
        <mxCell id="OdOt8cRQKXHRtBc2M5Zz-28" value="birthday" style="ellipse;whiteSpace=wrap;html=1;" vertex="1" parent="1">
          <mxGeometry x="1060" y="250" width="100" height="60" as="geometry" />
        </mxCell>
        <mxCell id="OdOt8cRQKXHRtBc2M5Zz-30" value="position" style="ellipse;whiteSpace=wrap;html=1;" vertex="1" parent="1">
          <mxGeometry x="920" y="360" width="100" height="60" as="geometry" />
        </mxCell>
        <mxCell id="OdOt8cRQKXHRtBc2M5Zz-31" value="gender" style="ellipse;whiteSpace=wrap;html=1;" vertex="1" parent="1">
          <mxGeometry x="1020" y="360" width="100" height="60" as="geometry" />
        </mxCell>
        <mxCell id="OdOt8cRQKXHRtBc2M5Zz-37" style="edgeStyle=orthogonalEdgeStyle;rounded=0;orthogonalLoop=1;jettySize=auto;html=1;entryX=0.4;entryY=1;entryDx=0;entryDy=0;entryPerimeter=0;" edge="1" parent="1" source="OdOt8cRQKXHRtBc2M5Zz-24" target="OdOt8cRQKXHRtBc2M5Zz-26">
          <mxGeometry relative="1" as="geometry" />
        </mxCell>
        <mxCell id="OdOt8cRQKXHRtBc2M5Zz-41" style="edgeStyle=orthogonalEdgeStyle;rounded=0;orthogonalLoop=1;jettySize=auto;html=1;entryX=0.4;entryY=0;entryDx=0;entryDy=0;entryPerimeter=0;" edge="1" parent="1" source="OdOt8cRQKXHRtBc2M5Zz-24" target="OdOt8cRQKXHRtBc2M5Zz-31">
          <mxGeometry relative="1" as="geometry" />
        </mxCell>
        <mxCell id="OdOt8cRQKXHRtBc2M5Zz-42" style="edgeStyle=orthogonalEdgeStyle;rounded=0;orthogonalLoop=1;jettySize=auto;html=1;entryX=0.39;entryY=0.05;entryDx=0;entryDy=0;entryPerimeter=0;" edge="1" parent="1" source="OdOt8cRQKXHRtBc2M5Zz-24" target="OdOt8cRQKXHRtBc2M5Zz-30">
          <mxGeometry relative="1" as="geometry" />
        </mxCell>
        <mxCell id="OdOt8cRQKXHRtBc2M5Zz-45" value="day" style="ellipse;whiteSpace=wrap;html=1;" vertex="1" parent="1">
          <mxGeometry x="1200" y="180" width="100" height="60" as="geometry" />
        </mxCell>
        <mxCell id="OdOt8cRQKXHRtBc2M5Zz-46" value="month" style="ellipse;whiteSpace=wrap;html=1;" vertex="1" parent="1">
          <mxGeometry x="1200" y="240" width="100" height="60" as="geometry" />
        </mxCell>
        <mxCell id="OdOt8cRQKXHRtBc2M5Zz-47" value="year" style="ellipse;whiteSpace=wrap;html=1;" vertex="1" parent="1">
          <mxGeometry x="1200" y="300" width="100" height="60" as="geometry" />
        </mxCell>
        <mxCell id="OdOt8cRQKXHRtBc2M5Zz-50" value="qualifications" style="ellipse;shape=doubleEllipse;html=1;dashed=0;whiteSpace=wrap;aspect=fixed;" vertex="1" parent="1">
          <mxGeometry x="820" y="360" width="80" height="80" as="geometry" />
        </mxCell>
        <mxCell id="OdOt8cRQKXHRtBc2M5Zz-52" value="phone_numbers" style="ellipse;shape=doubleEllipse;html=1;dashed=0;whiteSpace=wrap;aspect=fixed;" vertex="1" parent="1">
          <mxGeometry x="570" y="110" width="100" height="100" as="geometry" />
        </mxCell>
        <mxCell id="OdOt8cRQKXHRtBc2M5Zz-55" style="edgeStyle=orthogonalEdgeStyle;rounded=0;orthogonalLoop=1;jettySize=auto;html=1;entryX=0;entryY=0.667;entryDx=0;entryDy=0;entryPerimeter=0;" edge="1" parent="1" source="OdOt8cRQKXHRtBc2M5Zz-28" target="OdOt8cRQKXHRtBc2M5Zz-46">
          <mxGeometry relative="1" as="geometry" />
        </mxCell>
        <mxCell id="OdOt8cRQKXHRtBc2M5Zz-61" style="edgeStyle=orthogonalEdgeStyle;rounded=0;orthogonalLoop=1;jettySize=auto;html=1;entryX=0.5;entryY=0;entryDx=0;entryDy=0;" edge="1" parent="1" source="OdOt8cRQKXHRtBc2M5Zz-57" target="OdOt8cRQKXHRtBc2M5Zz-58">
          <mxGeometry relative="1" as="geometry" />
        </mxCell>
        <mxCell id="OdOt8cRQKXHRtBc2M5Zz-62" style="edgeStyle=orthogonalEdgeStyle;rounded=0;orthogonalLoop=1;jettySize=auto;html=1;entryX=0.5;entryY=0;entryDx=0;entryDy=0;" edge="1" parent="1" source="OdOt8cRQKXHRtBc2M5Zz-57" target="OdOt8cRQKXHRtBc2M5Zz-59">
          <mxGeometry relative="1" as="geometry" />
        </mxCell>
        <mxCell id="OdOt8cRQKXHRtBc2M5Zz-63" style="edgeStyle=orthogonalEdgeStyle;rounded=0;orthogonalLoop=1;jettySize=auto;html=1;entryX=0.5;entryY=0;entryDx=0;entryDy=0;" edge="1" parent="1" source="OdOt8cRQKXHRtBc2M5Zz-57" target="OdOt8cRQKXHRtBc2M5Zz-60">
          <mxGeometry relative="1" as="geometry" />
        </mxCell>
        <mxCell id="OdOt8cRQKXHRtBc2M5Zz-57" value="Aircraft" style="rounded=0;whiteSpace=wrap;html=1;" vertex="1" parent="1">
          <mxGeometry x="340" y="580" width="120" height="60" as="geometry" />
        </mxCell>
        <mxCell id="OdOt8cRQKXHRtBc2M5Zz-58" value="Model" style="ellipse;whiteSpace=wrap;html=1;" vertex="1" parent="1">
          <mxGeometry x="460" y="690" width="120" height="80" as="geometry" />
        </mxCell>
        <mxCell id="OdOt8cRQKXHRtBc2M5Zz-59" value="Capacity" style="ellipse;whiteSpace=wrap;html=1;" vertex="1" parent="1">
          <mxGeometry x="340" y="690" width="120" height="80" as="geometry" />
        </mxCell>
        <mxCell id="OdOt8cRQKXHRtBc2M5Zz-60" value="&lt;u&gt;ID&lt;/u&gt;" style="ellipse;whiteSpace=wrap;html=1;" vertex="1" parent="1">
          <mxGeometry x="220" y="690" width="120" height="80" as="geometry" />
        </mxCell>
        <mxCell id="OdOt8cRQKXHRtBc2M5Zz-92" style="edgeStyle=orthogonalEdgeStyle;rounded=0;orthogonalLoop=1;jettySize=auto;html=1;" edge="1" parent="1" source="OdOt8cRQKXHRtBc2M5Zz-64">
          <mxGeometry relative="1" as="geometry">
            <mxPoint x="860" y="600" as="targetPoint" />
          </mxGeometry>
        </mxCell>
        <mxCell id="OdOt8cRQKXHRtBc2M5Zz-93" style="edgeStyle=orthogonalEdgeStyle;rounded=0;orthogonalLoop=1;jettySize=auto;html=1;entryX=0.5;entryY=1;entryDx=0;entryDy=0;" edge="1" parent="1" source="OdOt8cRQKXHRtBc2M5Zz-64" target="OdOt8cRQKXHRtBc2M5Zz-66">
          <mxGeometry relative="1" as="geometry" />
        </mxCell>
        <mxCell id="OdOt8cRQKXHRtBc2M5Zz-95" style="edgeStyle=orthogonalEdgeStyle;rounded=0;orthogonalLoop=1;jettySize=auto;html=1;entryX=0;entryY=0.5;entryDx=0;entryDy=0;" edge="1" parent="1" source="OdOt8cRQKXHRtBc2M5Zz-64">
          <mxGeometry relative="1" as="geometry">
            <mxPoint x="1120.0000000000082" y="680" as="targetPoint" />
          </mxGeometry>
        </mxCell>
        <mxCell id="OdOt8cRQKXHRtBc2M5Zz-161" style="edgeStyle=orthogonalEdgeStyle;rounded=0;orthogonalLoop=1;jettySize=auto;html=1;entryX=0;entryY=0.5;entryDx=0;entryDy=0;" edge="1" parent="1" source="OdOt8cRQKXHRtBc2M5Zz-64" target="OdOt8cRQKXHRtBc2M5Zz-158">
          <mxGeometry relative="1" as="geometry" />
        </mxCell>
        <mxCell id="OdOt8cRQKXHRtBc2M5Zz-64" value="Route" style="rounded=0;whiteSpace=wrap;html=1;" vertex="1" parent="1">
          <mxGeometry x="970" y="630" width="120" height="60" as="geometry" />
        </mxCell>
        <mxCell id="OdOt8cRQKXHRtBc2M5Zz-65" value="&lt;u&gt;ID&lt;/u&gt;" style="ellipse;whiteSpace=wrap;html=1;" vertex="1" parent="1">
          <mxGeometry x="800" y="510" width="120" height="80" as="geometry" />
        </mxCell>
        <mxCell id="OdOt8cRQKXHRtBc2M5Zz-66" value="Origin" style="ellipse;whiteSpace=wrap;html=1;" vertex="1" parent="1">
          <mxGeometry x="950" y="510" width="120" height="80" as="geometry" />
        </mxCell>
        <mxCell id="OdOt8cRQKXHRtBc2M5Zz-67" value="Destination" style="ellipse;whiteSpace=wrap;html=1;" vertex="1" parent="1">
          <mxGeometry x="1110" y="510" width="120" height="80" as="geometry" />
        </mxCell>
        <mxCell id="OdOt8cRQKXHRtBc2M5Zz-69" value="Classification" style="ellipse;whiteSpace=wrap;html=1;" vertex="1" parent="1">
          <mxGeometry x="1120" y="760" width="120" height="80" as="geometry" />
        </mxCell>
        <mxCell id="OdOt8cRQKXHRtBc2M5Zz-88" style="edgeStyle=orthogonalEdgeStyle;rounded=0;orthogonalLoop=1;jettySize=auto;html=1;entryX=0.5;entryY=1;entryDx=0;entryDy=0;" edge="1" parent="1" source="OdOt8cRQKXHRtBc2M5Zz-82" target="OdOt8cRQKXHRtBc2M5Zz-84">
          <mxGeometry relative="1" as="geometry" />
        </mxCell>
        <mxCell id="OdOt8cRQKXHRtBc2M5Zz-89" style="edgeStyle=orthogonalEdgeStyle;rounded=0;orthogonalLoop=1;jettySize=auto;html=1;entryX=0.5;entryY=1;entryDx=0;entryDy=0;" edge="1" parent="1" source="OdOt8cRQKXHRtBc2M5Zz-82" target="OdOt8cRQKXHRtBc2M5Zz-85">
          <mxGeometry relative="1" as="geometry" />
        </mxCell>
        <mxCell id="OdOt8cRQKXHRtBc2M5Zz-90" style="edgeStyle=orthogonalEdgeStyle;rounded=0;orthogonalLoop=1;jettySize=auto;html=1;entryX=0.5;entryY=1;entryDx=0;entryDy=0;" edge="1" parent="1" source="OdOt8cRQKXHRtBc2M5Zz-82" target="OdOt8cRQKXHRtBc2M5Zz-86">
          <mxGeometry relative="1" as="geometry" />
        </mxCell>
        <mxCell id="OdOt8cRQKXHRtBc2M5Zz-91" style="edgeStyle=orthogonalEdgeStyle;rounded=0;orthogonalLoop=1;jettySize=auto;html=1;entryX=0.5;entryY=1;entryDx=0;entryDy=0;" edge="1" parent="1" source="OdOt8cRQKXHRtBc2M5Zz-82" target="OdOt8cRQKXHRtBc2M5Zz-87">
          <mxGeometry relative="1" as="geometry" />
        </mxCell>
        <mxCell id="OdOt8cRQKXHRtBc2M5Zz-82" value="Transaction" style="rounded=0;whiteSpace=wrap;html=1;" vertex="1" parent="1">
          <mxGeometry x="-290" y="760" width="120" height="60" as="geometry" />
        </mxCell>
        <mxCell id="OdOt8cRQKXHRtBc2M5Zz-84" value="&lt;u&gt;ID&lt;/u&gt;" style="ellipse;whiteSpace=wrap;html=1;" vertex="1" parent="1">
          <mxGeometry x="-470" y="610" width="120" height="80" as="geometry" />
        </mxCell>
        <mxCell id="OdOt8cRQKXHRtBc2M5Zz-85" value="Date" style="ellipse;whiteSpace=wrap;html=1;" vertex="1" parent="1">
          <mxGeometry x="-350" y="610" width="120" height="80" as="geometry" />
        </mxCell>
        <mxCell id="OdOt8cRQKXHRtBc2M5Zz-86" value="Description" style="ellipse;whiteSpace=wrap;html=1;" vertex="1" parent="1">
          <mxGeometry x="-230" y="610" width="120" height="80" as="geometry" />
        </mxCell>
        <mxCell id="OdOt8cRQKXHRtBc2M5Zz-87" value="money_amount" style="ellipse;whiteSpace=wrap;html=1;" vertex="1" parent="1">
          <mxGeometry x="-110" y="610" width="120" height="80" as="geometry" />
        </mxCell>
        <mxCell id="OdOt8cRQKXHRtBc2M5Zz-94" style="edgeStyle=orthogonalEdgeStyle;rounded=0;orthogonalLoop=1;jettySize=auto;html=1;entryX=0.017;entryY=0.6;entryDx=0;entryDy=0;entryPerimeter=0;" edge="1" parent="1" source="OdOt8cRQKXHRtBc2M5Zz-64" target="OdOt8cRQKXHRtBc2M5Zz-67">
          <mxGeometry relative="1" as="geometry" />
        </mxCell>
        <mxCell id="OdOt8cRQKXHRtBc2M5Zz-96" style="edgeStyle=orthogonalEdgeStyle;rounded=0;orthogonalLoop=1;jettySize=auto;html=1;entryX=0.008;entryY=0.588;entryDx=0;entryDy=0;entryPerimeter=0;" edge="1" parent="1" source="OdOt8cRQKXHRtBc2M5Zz-64" target="OdOt8cRQKXHRtBc2M5Zz-69">
          <mxGeometry relative="1" as="geometry" />
        </mxCell>
        <mxCell id="OdOt8cRQKXHRtBc2M5Zz-97" value="works_in" style="rhombus;whiteSpace=wrap;html=1;" vertex="1" parent="1">
          <mxGeometry x="670" y="260" width="80" height="80" as="geometry" />
        </mxCell>
        <mxCell id="OdOt8cRQKXHRtBc2M5Zz-98" value="" style="endArrow=none;html=1;rounded=0;exitX=1;exitY=0.5;exitDx=0;exitDy=0;entryX=0;entryY=0.75;entryDx=0;entryDy=0;" edge="1" parent="1" source="OdOt8cRQKXHRtBc2M5Zz-97" target="OdOt8cRQKXHRtBc2M5Zz-24">
          <mxGeometry width="50" height="50" relative="1" as="geometry">
            <mxPoint x="960" y="380" as="sourcePoint" />
            <mxPoint x="1010" y="330" as="targetPoint" />
          </mxGeometry>
        </mxCell>
        <mxCell id="OdOt8cRQKXHRtBc2M5Zz-101" value="" style="endArrow=none;html=1;rounded=0;entryX=0.5;entryY=1;entryDx=0;entryDy=0;" edge="1" parent="1" target="OdOt8cRQKXHRtBc2M5Zz-97">
          <mxGeometry width="50" height="50" relative="1" as="geometry">
            <mxPoint x="710" y="390" as="sourcePoint" />
            <mxPoint x="1010" y="330" as="targetPoint" />
          </mxGeometry>
        </mxCell>
        <mxCell id="OdOt8cRQKXHRtBc2M5Zz-102" value="" style="endArrow=none;html=1;rounded=0;exitX=1;exitY=0.75;exitDx=0;exitDy=0;" edge="1" parent="1" source="OdOt8cRQKXHRtBc2M5Zz-12">
          <mxGeometry width="50" height="50" relative="1" as="geometry">
            <mxPoint x="960" y="380" as="sourcePoint" />
            <mxPoint x="710" y="390" as="targetPoint" />
          </mxGeometry>
        </mxCell>
        <mxCell id="OdOt8cRQKXHRtBc2M5Zz-103" value="1" style="text;strokeColor=none;align=center;fillColor=none;html=1;verticalAlign=middle;whiteSpace=wrap;rounded=0;" vertex="1" parent="1">
          <mxGeometry x="460" y="360" width="60" height="30" as="geometry" />
        </mxCell>
        <mxCell id="OdOt8cRQKXHRtBc2M5Zz-106" value="owns" style="rhombus;whiteSpace=wrap;html=1;" vertex="1" parent="1">
          <mxGeometry x="370" y="420" width="80" height="80" as="geometry" />
        </mxCell>
        <mxCell id="OdOt8cRQKXHRtBc2M5Zz-107" value="" style="endArrow=none;html=1;rounded=0;exitX=0.5;exitY=0;exitDx=0;exitDy=0;entryX=0.5;entryY=1;entryDx=0;entryDy=0;" edge="1" parent="1" source="OdOt8cRQKXHRtBc2M5Zz-106" target="OdOt8cRQKXHRtBc2M5Zz-12">
          <mxGeometry width="50" height="50" relative="1" as="geometry">
            <mxPoint x="560" y="480" as="sourcePoint" />
            <mxPoint x="610" y="430" as="targetPoint" />
          </mxGeometry>
        </mxCell>
        <mxCell id="OdOt8cRQKXHRtBc2M5Zz-108" value="" style="endArrow=none;html=1;rounded=0;exitX=0.5;exitY=0;exitDx=0;exitDy=0;entryX=0.5;entryY=1;entryDx=0;entryDy=0;" edge="1" parent="1" source="OdOt8cRQKXHRtBc2M5Zz-57" target="OdOt8cRQKXHRtBc2M5Zz-106">
          <mxGeometry width="50" height="50" relative="1" as="geometry">
            <mxPoint x="560" y="480" as="sourcePoint" />
            <mxPoint x="610" y="430" as="targetPoint" />
          </mxGeometry>
        </mxCell>
        <mxCell id="OdOt8cRQKXHRtBc2M5Zz-110" value="M" style="text;html=1;align=center;verticalAlign=middle;resizable=0;points=[];autosize=1;strokeColor=none;fillColor=none;" vertex="1" parent="1">
          <mxGeometry x="405" y="548" width="30" height="30" as="geometry" />
        </mxCell>
        <mxCell id="OdOt8cRQKXHRtBc2M5Zz-111" value="" style="endArrow=none;html=1;rounded=0;entryX=0.567;entryY=-0.033;entryDx=0;entryDy=0;entryPerimeter=0;exitX=0.613;exitY=0.075;exitDx=0;exitDy=0;exitPerimeter=0;" edge="1" parent="1" source="OdOt8cRQKXHRtBc2M5Zz-106">
          <mxGeometry width="50" height="50" relative="1" as="geometry">
            <mxPoint x="420" y="420" as="sourcePoint" />
            <mxPoint x="429.0100000000002" y="374.01" as="targetPoint" />
          </mxGeometry>
        </mxCell>
        <mxCell id="OdOt8cRQKXHRtBc2M5Zz-112" value="1" style="text;html=1;align=center;verticalAlign=middle;resizable=0;points=[];autosize=1;strokeColor=none;fillColor=none;" vertex="1" parent="1">
          <mxGeometry x="425" y="368" width="30" height="30" as="geometry" />
        </mxCell>
        <mxCell id="OdOt8cRQKXHRtBc2M5Zz-113" value="" style="endArrow=none;html=1;rounded=0;exitX=0.025;exitY=0.883;exitDx=0;exitDy=0;exitPerimeter=0;" edge="1" parent="1" source="OdOt8cRQKXHRtBc2M5Zz-24">
          <mxGeometry width="50" height="50" relative="1" as="geometry">
            <mxPoint x="910" y="305" as="sourcePoint" />
            <mxPoint x="740" y="310" as="targetPoint" />
          </mxGeometry>
        </mxCell>
        <mxCell id="OdOt8cRQKXHRtBc2M5Zz-114" value="M" style="text;html=1;align=center;verticalAlign=middle;resizable=0;points=[];autosize=1;strokeColor=none;fillColor=none;" vertex="1" parent="1">
          <mxGeometry x="878" y="300" width="30" height="30" as="geometry" />
        </mxCell>
        <mxCell id="OdOt8cRQKXHRtBc2M5Zz-116" value="assigned" style="rhombus;whiteSpace=wrap;html=1;" vertex="1" parent="1">
          <mxGeometry x="710" y="720" width="80" height="80" as="geometry" />
        </mxCell>
        <mxCell id="OdOt8cRQKXHRtBc2M5Zz-117" value="" style="endArrow=none;html=1;rounded=0;exitX=1;exitY=0.5;exitDx=0;exitDy=0;entryX=0;entryY=1;entryDx=0;entryDy=0;" edge="1" parent="1" source="OdOt8cRQKXHRtBc2M5Zz-116" target="OdOt8cRQKXHRtBc2M5Zz-64">
          <mxGeometry width="50" height="50" relative="1" as="geometry">
            <mxPoint x="850" y="680" as="sourcePoint" />
            <mxPoint x="900" y="630" as="targetPoint" />
          </mxGeometry>
        </mxCell>
        <mxCell id="OdOt8cRQKXHRtBc2M5Zz-118" value="" style="endArrow=none;html=1;rounded=0;exitX=0;exitY=0.5;exitDx=0;exitDy=0;entryX=1;entryY=0.25;entryDx=0;entryDy=0;" edge="1" parent="1" source="OdOt8cRQKXHRtBc2M5Zz-116" target="OdOt8cRQKXHRtBc2M5Zz-57">
          <mxGeometry width="50" height="50" relative="1" as="geometry">
            <mxPoint x="850" y="680" as="sourcePoint" />
            <mxPoint x="900" y="630" as="targetPoint" />
          </mxGeometry>
        </mxCell>
        <mxCell id="OdOt8cRQKXHRtBc2M5Zz-120" value="M" style="text;html=1;align=center;verticalAlign=middle;resizable=0;points=[];autosize=1;strokeColor=none;fillColor=none;" vertex="1" parent="1">
          <mxGeometry x="975" y="698" width="30" height="30" as="geometry" />
        </mxCell>
        <mxCell id="OdOt8cRQKXHRtBc2M5Zz-121" value="M" style="text;html=1;align=center;verticalAlign=middle;resizable=0;points=[];autosize=1;strokeColor=none;fillColor=none;" vertex="1" parent="1">
          <mxGeometry x="470" y="580" width="30" height="30" as="geometry" />
        </mxCell>
        <mxCell id="OdOt8cRQKXHRtBc2M5Zz-122" value="arrival_date" style="ellipse;whiteSpace=wrap;html=1;" vertex="1" parent="1">
          <mxGeometry x="850" y="880" width="90" height="60" as="geometry" />
        </mxCell>
        <mxCell id="OdOt8cRQKXHRtBc2M5Zz-123" value="departure_date" style="ellipse;whiteSpace=wrap;html=1;" vertex="1" parent="1">
          <mxGeometry x="760" y="880" width="90" height="60" as="geometry" />
        </mxCell>
        <mxCell id="OdOt8cRQKXHRtBc2M5Zz-124" value="price_per&lt;div&gt;_passenger&lt;/div&gt;" style="ellipse;whiteSpace=wrap;html=1;" vertex="1" parent="1">
          <mxGeometry x="670" y="880" width="90" height="60" as="geometry" />
        </mxCell>
        <mxCell id="OdOt8cRQKXHRtBc2M5Zz-125" value="num_passengers" style="ellipse;whiteSpace=wrap;html=1;" vertex="1" parent="1">
          <mxGeometry x="580" y="880" width="90" height="60" as="geometry" />
        </mxCell>
        <mxCell id="OdOt8cRQKXHRtBc2M5Zz-126" value="time_spent" style="ellipse;whiteSpace=wrap;html=1;" vertex="1" parent="1">
          <mxGeometry x="940" y="880" width="90" height="60" as="geometry" />
        </mxCell>
        <mxCell id="OdOt8cRQKXHRtBc2M5Zz-127" value="" style="endArrow=none;html=1;rounded=0;entryX=1;entryY=1;entryDx=0;entryDy=0;exitX=0.5;exitY=0;exitDx=0;exitDy=0;" edge="1" parent="1" source="OdOt8cRQKXHRtBc2M5Zz-126" target="OdOt8cRQKXHRtBc2M5Zz-116">
          <mxGeometry width="50" height="50" relative="1" as="geometry">
            <mxPoint x="820" y="880" as="sourcePoint" />
            <mxPoint x="870" y="830" as="targetPoint" />
          </mxGeometry>
        </mxCell>
        <mxCell id="OdOt8cRQKXHRtBc2M5Zz-128" value="" style="endArrow=none;html=1;rounded=0;entryX=0.613;entryY=0.9;entryDx=0;entryDy=0;entryPerimeter=0;exitX=0.5;exitY=0;exitDx=0;exitDy=0;" edge="1" parent="1" source="OdOt8cRQKXHRtBc2M5Zz-122" target="OdOt8cRQKXHRtBc2M5Zz-116">
          <mxGeometry width="50" height="50" relative="1" as="geometry">
            <mxPoint x="820" y="880" as="sourcePoint" />
            <mxPoint x="870" y="830" as="targetPoint" />
          </mxGeometry>
        </mxCell>
        <mxCell id="OdOt8cRQKXHRtBc2M5Zz-129" value="" style="endArrow=none;html=1;rounded=0;entryX=0.5;entryY=1;entryDx=0;entryDy=0;exitX=0.5;exitY=0;exitDx=0;exitDy=0;" edge="1" parent="1" source="OdOt8cRQKXHRtBc2M5Zz-123" target="OdOt8cRQKXHRtBc2M5Zz-116">
          <mxGeometry width="50" height="50" relative="1" as="geometry">
            <mxPoint x="820" y="880" as="sourcePoint" />
            <mxPoint x="870" y="830" as="targetPoint" />
          </mxGeometry>
        </mxCell>
        <mxCell id="OdOt8cRQKXHRtBc2M5Zz-130" value="" style="endArrow=none;html=1;rounded=0;entryX=0;entryY=1;entryDx=0;entryDy=0;exitX=0.5;exitY=0;exitDx=0;exitDy=0;" edge="1" parent="1" source="OdOt8cRQKXHRtBc2M5Zz-124" target="OdOt8cRQKXHRtBc2M5Zz-116">
          <mxGeometry width="50" height="50" relative="1" as="geometry">
            <mxPoint x="730" y="880" as="sourcePoint" />
            <mxPoint x="750" y="810" as="targetPoint" />
          </mxGeometry>
        </mxCell>
        <mxCell id="OdOt8cRQKXHRtBc2M5Zz-131" value="" style="endArrow=none;html=1;rounded=0;entryX=0.1;entryY=0.675;entryDx=0;entryDy=0;entryPerimeter=0;exitX=0.5;exitY=0;exitDx=0;exitDy=0;" edge="1" parent="1" source="OdOt8cRQKXHRtBc2M5Zz-125" target="OdOt8cRQKXHRtBc2M5Zz-116">
          <mxGeometry width="50" height="50" relative="1" as="geometry">
            <mxPoint x="730" y="880" as="sourcePoint" />
            <mxPoint x="780" y="830" as="targetPoint" />
          </mxGeometry>
        </mxCell>
        <mxCell id="OdOt8cRQKXHRtBc2M5Zz-132" value="has" style="rhombus;whiteSpace=wrap;html=1;" vertex="1" parent="1">
          <mxGeometry x="130" y="460" width="80" height="80" as="geometry" />
        </mxCell>
        <mxCell id="OdOt8cRQKXHRtBc2M5Zz-133" value="" style="endArrow=none;html=1;rounded=0;entryX=-0.015;entryY=0.394;entryDx=0;entryDy=0;exitX=1;exitY=0.5;exitDx=0;exitDy=0;entryPerimeter=0;" edge="1" parent="1" source="OdOt8cRQKXHRtBc2M5Zz-132" target="OdOt8cRQKXHRtBc2M5Zz-57">
          <mxGeometry width="50" height="50" relative="1" as="geometry">
            <mxPoint x="130" y="480" as="sourcePoint" />
            <mxPoint x="180" y="430" as="targetPoint" />
          </mxGeometry>
        </mxCell>
        <mxCell id="OdOt8cRQKXHRtBc2M5Zz-134" value="" style="endArrow=none;html=1;rounded=0;exitX=0;exitY=0.5;exitDx=0;exitDy=0;entryX=1;entryY=0.25;entryDx=0;entryDy=0;" edge="1" parent="1" source="OdOt8cRQKXHRtBc2M5Zz-132" target="OdOt8cRQKXHRtBc2M5Zz-139">
          <mxGeometry width="50" height="50" relative="1" as="geometry">
            <mxPoint x="130" y="480" as="sourcePoint" />
            <mxPoint x="-37" y="524" as="targetPoint" />
          </mxGeometry>
        </mxCell>
        <mxCell id="OdOt8cRQKXHRtBc2M5Zz-135" value="" style="endArrow=none;html=1;rounded=0;exitX=0.15;exitY=0.725;exitDx=0;exitDy=0;exitPerimeter=0;entryX=1;entryY=0.5;entryDx=0;entryDy=0;" edge="1" parent="1" source="OdOt8cRQKXHRtBc2M5Zz-132" target="OdOt8cRQKXHRtBc2M5Zz-139">
          <mxGeometry width="50" height="50" relative="1" as="geometry">
            <mxPoint x="130" y="480" as="sourcePoint" />
            <mxPoint x="-39.039999999999964" y="537.98" as="targetPoint" />
          </mxGeometry>
        </mxCell>
        <mxCell id="OdOt8cRQKXHRtBc2M5Zz-136" value="1" style="text;html=1;align=center;verticalAlign=middle;resizable=0;points=[];autosize=1;strokeColor=none;fillColor=none;" vertex="1" parent="1">
          <mxGeometry x="300" y="595" width="30" height="30" as="geometry" />
        </mxCell>
        <mxCell id="OdOt8cRQKXHRtBc2M5Zz-137" value="1" style="text;html=1;align=center;verticalAlign=middle;resizable=0;points=[];autosize=1;strokeColor=none;fillColor=none;" vertex="1" parent="1">
          <mxGeometry x="-40" y="540" width="30" height="30" as="geometry" />
        </mxCell>
        <mxCell id="OdOt8cRQKXHRtBc2M5Zz-139" value="Crew" style="shape=ext;margin=3;double=1;whiteSpace=wrap;html=1;align=center;" vertex="1" parent="1">
          <mxGeometry x="-150" y="520" width="100" height="40" as="geometry" />
        </mxCell>
        <mxCell id="OdOt8cRQKXHRtBc2M5Zz-141" value="keeps" style="rhombus;whiteSpace=wrap;html=1;" vertex="1" parent="1">
          <mxGeometry x="-10" y="870" width="80" height="80" as="geometry" />
        </mxCell>
        <mxCell id="OdOt8cRQKXHRtBc2M5Zz-142" value="" style="endArrow=none;html=1;rounded=0;exitX=0.5;exitY=0;exitDx=0;exitDy=0;" edge="1" parent="1" source="OdOt8cRQKXHRtBc2M5Zz-141">
          <mxGeometry width="50" height="50" relative="1" as="geometry">
            <mxPoint x="50" y="680" as="sourcePoint" />
            <mxPoint x="400" y="380" as="targetPoint" />
          </mxGeometry>
        </mxCell>
        <mxCell id="OdOt8cRQKXHRtBc2M5Zz-143" value="" style="endArrow=none;html=1;rounded=0;exitX=0;exitY=0.5;exitDx=0;exitDy=0;entryX=0.5;entryY=1;entryDx=0;entryDy=0;" edge="1" parent="1" source="OdOt8cRQKXHRtBc2M5Zz-141" target="OdOt8cRQKXHRtBc2M5Zz-82">
          <mxGeometry width="50" height="50" relative="1" as="geometry">
            <mxPoint x="50" y="680" as="sourcePoint" />
            <mxPoint x="100" y="630" as="targetPoint" />
          </mxGeometry>
        </mxCell>
        <mxCell id="OdOt8cRQKXHRtBc2M5Zz-144" value="" style="endArrow=none;html=1;rounded=0;exitX=0;exitY=0;exitDx=0;exitDy=0;entryX=0.75;entryY=1;entryDx=0;entryDy=0;" edge="1" parent="1" source="OdOt8cRQKXHRtBc2M5Zz-141" target="OdOt8cRQKXHRtBc2M5Zz-82">
          <mxGeometry width="50" height="50" relative="1" as="geometry">
            <mxPoint x="50" y="790" as="sourcePoint" />
            <mxPoint x="100" y="740" as="targetPoint" />
          </mxGeometry>
        </mxCell>
        <mxCell id="OdOt8cRQKXHRtBc2M5Zz-145" value="M" style="text;html=1;align=center;verticalAlign=middle;resizable=0;points=[];autosize=1;strokeColor=none;fillColor=none;" vertex="1" parent="1">
          <mxGeometry x="-245" y="830" width="30" height="30" as="geometry" />
        </mxCell>
        <mxCell id="OdOt8cRQKXHRtBc2M5Zz-148" value="1" style="text;html=1;align=center;verticalAlign=middle;resizable=0;points=[];autosize=1;strokeColor=none;fillColor=none;" vertex="1" parent="1">
          <mxGeometry x="375" y="360" width="30" height="30" as="geometry" />
        </mxCell>
        <mxCell id="OdOt8cRQKXHRtBc2M5Zz-158" value="Distance" style="ellipse;whiteSpace=wrap;html=1;align=center;dashed=1;" vertex="1" parent="1">
          <mxGeometry x="1150" y="650" width="100" height="40" as="geometry" />
        </mxCell>
        <mxCell id="OdOt8cRQKXHRtBc2M5Zz-160" value="" style="endArrow=none;html=1;rounded=0;entryX=0.904;entryY=0.598;entryDx=0;entryDy=0;entryPerimeter=0;exitX=0;exitY=0.5;exitDx=0;exitDy=0;" edge="1" parent="1" source="OdOt8cRQKXHRtBc2M5Zz-57" target="OdOt8cRQKXHRtBc2M5Zz-132">
          <mxGeometry width="50" height="50" relative="1" as="geometry">
            <mxPoint x="270" y="500" as="sourcePoint" />
            <mxPoint x="320" y="450" as="targetPoint" />
          </mxGeometry>
        </mxCell>
      </root>
    </mxGraphModel>
  </diagram>
</mxfile>
